<?xml version="1.0" encoding="UTF-8"?>
<svg xmlns="http://www.w3.org/2000/svg" xmlns:xlink="http://www.w3.org/1999/xlink" width="100px" height="100px" viewBox="0 0 100 100" version="1.1">
<g id="surface1">
<path style=" stroke:none;fill-rule:nonzero;fill:rgb(91.372549%,79.215686%,19.607843%);fill-opacity:1;" d="M 8.371094 89.527344 L 0 0.167969 L 100 0.347656 L 91.144531 89.527344 L 50.378906 99.832031 Z M 8.371094 89.527344 "/>
<path style=" stroke:none;fill-rule:nonzero;fill:rgb(100%,87.058824%,14.509804%);fill-opacity:1;" d="M 50.378906 91.203125 L 50.378906 8.675781 L 91.558594 8.796875 L 84.214844 82.632812 Z M 50.378906 91.203125 "/>
<path style=" stroke:none;fill-rule:nonzero;fill:rgb(100%,100%,100%);fill-opacity:1;" d="M 45.96875 18.476562 L 35.082031 18.476562 L 35.082031 73.402344 L 26.613281 71.996094 L 26.613281 64.601562 L 16.53125 63.191406 L 16.53125 79.742188 L 45.96875 86.429688 Z M 54.136719 18.476562 L 84.273438 18.476562 L 82.257812 29.003906 L 65.640625 29.003906 L 65.640625 46.277344 L 82.257812 46.277344 L 80.242188 81.148438 L 54.136719 86.429688 L 54.136719 75.515625 L 71.773438 70.234375 L 72.792969 55.800781 L 54.136719 58.15625 Z M 54.136719 18.476562 "/>
</g>
</svg>
