<?xml version="1.0" encoding="UTF-8"?>
<svg xmlns="http://www.w3.org/2000/svg" xmlns:xlink="http://www.w3.org/1999/xlink" width="150px" height="150px" viewBox="0 0 150 150" version="1.1">
<g id="surface1">
<path style=" stroke:none;fill-rule:nonzero;fill:rgb(91.372549%,79.215686%,19.607843%);fill-opacity:1;" d="M 12.558594 134.289062 L 0 0.25 L 150 0.519531 L 136.71875 134.289062 L 75.566406 149.75 Z M 12.558594 134.289062 "/>
<path style=" stroke:none;fill-rule:nonzero;fill:rgb(100%,87.058824%,14.509804%);fill-opacity:1;" d="M 75.566406 136.804688 L 75.566406 13.015625 L 137.335938 13.195312 L 126.320312 123.949219 Z M 75.566406 136.804688 "/>
<path style=" stroke:none;fill-rule:nonzero;fill:rgb(100%,100%,100%);fill-opacity:1;" d="M 68.953125 27.714844 L 52.621094 27.714844 L 52.621094 110.105469 L 39.917969 107.992188 L 39.917969 96.902344 L 24.796875 94.789062 L 24.796875 119.613281 L 68.953125 129.644531 Z M 81.203125 27.714844 L 126.410156 27.714844 L 123.386719 43.503906 L 98.460938 43.503906 L 98.460938 69.417969 L 123.386719 69.417969 L 120.363281 121.722656 L 81.203125 129.644531 L 81.203125 113.273438 L 107.660156 105.351562 L 109.1875 83.699219 L 81.203125 87.234375 Z M 81.203125 27.714844 "/>
</g>
</svg>
