<?xml version="1.0" encoding="UTF-8"?>
<svg xmlns="http://www.w3.org/2000/svg" xmlns:xlink="http://www.w3.org/1999/xlink" width="150px" height="150px" viewBox="0 0 150 150" version="1.1">
<g id="surface1">
<path style=" stroke:none;fill-rule:evenodd;fill:rgb(100%,100%,100%);fill-opacity:1;" d="M 75 0 C 33.5625 0 0 33.5625 0 75 C 0 108.1875 21.46875 136.21875 51.28125 146.15625 C 55.03125 146.8125 56.4375 144.5625 56.4375 142.59375 C 56.4375 140.8125 56.34375 134.90625 56.34375 128.625 C 37.5 132.09375 32.625 124.03125 31.125 119.8125 C 30.28125 117.65625 26.625 111 23.4375 109.21875 C 20.8125 107.8125 17.0625 104.34375 23.34375 104.25 C 29.25 104.15625 33.46875 109.6875 34.875 111.9375 C 41.625 123.28125 52.40625 120.09375 56.71875 118.125 C 57.375 113.25 59.34375 109.96875 61.5 108.09375 C 44.8125 106.21875 27.375 99.75 27.375 71.0625 C 27.375 62.90625 30.28125 56.15625 35.0625 50.90625 C 34.3125 49.03125 31.6875 41.34375 35.8125 31.03125 C 35.8125 31.03125 42.09375 29.0625 56.4375 38.71875 C 62.4375 37.03125 68.8125 36.1875 75.1875 36.1875 C 81.5625 36.1875 87.9375 37.03125 93.9375 38.71875 C 108.28125 28.96875 114.5625 31.03125 114.5625 31.03125 C 118.6875 41.34375 116.0625 49.03125 115.3125 50.90625 C 120.09375 56.15625 123 62.8125 123 71.0625 C 123 99.84375 105.46875 106.21875 88.78125 108.09375 C 91.5 110.4375 93.84375 114.9375 93.84375 121.96875 C 93.84375 132 93.75 140.0625 93.75 142.59375 C 93.75 144.5625 95.15625 146.90625 98.90625 146.15625 C 128.53125 136.21875 150 108.09375 150 75 C 150 33.5625 116.4375 0 75 0 Z M 75 0 "/>
</g>
</svg>
